<svg width="149" height="56" viewBox="0 0 149 56" fill="none" xmlns="http://www.w3.org/2000/svg">
<g clip-path="url(#clip0_7_55)">
<path d="M27.8268 55.3472H26.9865L32.5629 39.9167H40.2782C41.7296 39.8403 43.0282 38.9236 43.5629 37.625L49.674 20.8958C50.6671 18.1458 49.0629 15.9306 46.1601 15.9306H35.5421L26.5282 40.6042L21.4101 54.5833C6.74346 51.0694 -2.34682 36.3264 1.16707 21.5833C3.45874 11.8819 10.7921 4.16667 20.4171 1.49306L15.1462 15.9306L6.4379 39.9167H12.2435L19.6532 19.5208H24.0073L16.5976 39.9167H22.4032L29.3546 20.8958C30.3476 18.1458 28.8198 15.9306 25.9171 15.9306H21.0282L26.6046 0.5C26.9865 0.5 27.4448 0.5 27.8268 0.5C42.9518 0.729167 55.0212 13.2569 54.7921 28.3819C54.5629 43.2014 42.5698 55.1181 27.8268 55.3472ZM44.4032 19.5208H40.049L33.9379 36.3264H38.2921L44.4032 19.5208Z" fill="#509FDA"/>
<path d="M93.9029 33.8055L98.2571 21.8889C98.7154 20.743 99.7848 19.9792 101.007 19.9028H106.965L108.417 15.9305H100.396C97.1112 15.9305 93.4445 18.6042 92.2223 21.8889L87.8682 33.8819C86.6459 37.1667 88.4029 39.8403 91.6876 39.8403H99.7084L101.16 35.868H95.2015C94.4376 35.9444 93.8265 35.3333 93.7501 34.5694C93.7501 34.2639 93.7501 34.0347 93.9029 33.8055Z" fill="url(#paint0_linear_7_55)"/>
<path d="M134.159 21.8889C134.618 20.743 135.687 19.9792 136.909 19.9028H146.916L148.368 15.9305H136.375C133.09 15.9305 129.423 18.6042 128.201 21.8889L127.437 23.875C126.215 27.1597 127.972 29.8333 131.257 29.8333H131.639H135.229C135.993 29.7569 136.604 30.368 136.68 31.0555C136.68 31.2847 136.68 31.5139 136.527 31.743L135.84 33.7292C135.382 34.875 134.312 35.6389 133.09 35.7153H123.159L121.708 39.6875H133.625C136.909 39.6875 140.576 37.0139 141.798 33.7292L142.486 31.8194C143.708 28.5347 141.951 25.8611 138.666 25.8611H134.694C133.93 25.9375 133.319 25.3264 133.243 24.5625C133.243 24.3333 133.319 24.0278 133.396 23.875L134.159 21.8889Z" fill="url(#paint1_linear_7_55)"/>
<path d="M82.8265 25.8611H78.8543C78.0904 25.9375 77.4793 25.4028 77.4029 24.6389C77.4029 24.4097 77.4029 24.1042 77.5557 23.875L78.3196 21.8889C78.7779 20.743 79.8473 19.9792 81.0696 19.9028H91.0765L92.5279 15.9305H80.5348C77.2501 15.9305 73.5834 18.6042 72.3612 21.8889L71.5973 23.875C70.3751 27.1597 72.1321 29.8333 75.4168 29.8333H75.7987H79.389C80.1529 29.7569 80.764 30.368 80.8404 31.0555C80.8404 31.2847 80.8404 31.5139 80.6876 31.743L80.0001 33.7292C79.5418 34.875 78.4723 35.6389 77.2501 35.7153H67.3196L65.8682 39.6875H77.8612C81.1459 39.6875 84.8126 37.0139 86.0348 33.7292L86.7987 31.743C87.8682 28.5347 86.1876 25.8611 82.8265 25.8611Z" fill="url(#paint2_linear_7_55)"/>
<path d="M126.215 21.8889C127.361 18.8333 125.909 16.2361 123.007 15.9305H110.402L108.951 19.9028H118.958C119.722 19.8264 120.333 20.4375 120.409 21.2014C120.409 21.4305 120.409 21.6597 120.257 21.8889L115.902 33.8819C115.444 35.0278 114.375 35.7917 113.152 35.868H109.18L114.298 21.8125H108.34L101.771 39.8403H113.764C117.048 39.8403 120.715 37.1667 121.937 33.8819L126.215 21.8889Z" fill="url(#paint3_linear_7_55)"/>
</g>
<defs>
<linearGradient id="paint0_linear_7_55" x1="97.9777" y1="39.825" x2="97.9777" y2="15.9" gradientUnits="userSpaceOnUse">
<stop/>
<stop offset="1" stop-color="#545454"/>
</linearGradient>
<linearGradient id="paint1_linear_7_55" x1="134.996" y1="39.8021" x2="134.996" y2="15.8618" gradientUnits="userSpaceOnUse">
<stop/>
<stop offset="1" stop-color="#545454"/>
</linearGradient>
<linearGradient id="paint2_linear_7_55" x1="79.1522" y1="39.8021" x2="79.1522" y2="15.8618" gradientUnits="userSpaceOnUse">
<stop/>
<stop offset="1" stop-color="#545454"/>
</linearGradient>
<linearGradient id="paint3_linear_7_55" x1="114.129" y1="39.825" x2="114.129" y2="15.8847" gradientUnits="userSpaceOnUse">
<stop/>
<stop offset="1" stop-color="#545454"/>
</linearGradient>
<clipPath id="clip0_7_55">
<rect width="148.958" height="55" fill="white" transform="translate(0.0205078 0.5)"/>
</clipPath>
</defs>
</svg>
