<svg width="147" height="56" viewBox="0 0 147 56" fill="none" xmlns="http://www.w3.org/2000/svg">
<g clip-path="url(#clip0_6_19)">
<path d="M49.9022 9.35049H47.1013V28.3501H49.9022V9.35049Z" fill="#00A443"/>
<path d="M62.9266 15.2091C61.9696 14.6022 60.8493 14.2755 59.7056 14.2988C58.6785 14.2988 57.7916 14.5089 57.068 14.929C56.3444 15.3491 55.7376 15.9093 55.2941 16.6096C55.2007 16.7496 55.1307 16.8897 55.0373 17.0297V9.35049H52.3765V28.3501H55.0373V25.8993C55.1074 26.0393 55.2007 26.1794 55.2941 26.3194C55.7376 27.0197 56.3678 27.6032 57.068 28C57.8149 28.4201 58.6785 28.6302 59.7289 28.6302C60.5925 28.6535 61.4328 28.4668 62.2264 28.1167C62.9966 27.7666 63.6735 27.2764 64.2337 26.6462C64.8172 25.9927 65.2841 25.1991 65.5875 24.3821C65.9143 23.4485 66.0777 22.4915 66.0777 21.4878C66.0777 20.0874 65.7976 18.827 65.2374 17.7533C64.6772 16.7029 63.9069 15.8393 62.9266 15.2091ZM63.02 23.4485C62.8333 24.0087 62.5298 24.5222 62.1564 24.9423C61.7829 25.3625 61.3394 25.6892 60.8493 25.8993C60.3124 26.1327 59.7522 26.2261 59.1687 26.2261C57.955 26.2261 56.9513 25.8059 56.1811 24.9657C55.4108 24.1254 55.014 22.9583 55.014 21.4645C54.9907 20.7876 55.1074 20.1107 55.3174 19.4572C55.5042 18.897 55.8076 18.4068 56.1811 17.9633C56.5545 17.5432 56.998 17.2398 57.4882 17.0297C58.0017 16.8196 58.5852 16.7263 59.1454 16.7263C60.3591 16.7263 61.3861 17.1464 62.1564 17.9867C62.9266 18.827 63.3234 19.994 63.3234 21.4878C63.3234 22.1414 63.2301 22.8183 63.02 23.4485Z" fill="#00A443"/>
<path d="M77.0945 15.1858C76.1142 14.5789 74.9705 14.2755 73.8034 14.2988C72.8931 14.2755 71.9828 14.4622 71.1192 14.789C70.3256 15.1157 69.602 15.6059 69.0185 16.2594C68.4116 16.913 67.9448 17.6833 67.6414 18.5235C67.3146 19.4805 67.1512 20.4608 67.1746 21.4645C67.1746 22.9116 67.4547 24.1487 68.0382 25.2224C68.5984 26.2494 69.4153 27.1364 70.419 27.7432C71.4926 28.3735 72.683 28.6769 73.9201 28.6535C74.7137 28.6535 75.484 28.5368 76.2542 28.3268C77.0011 28.0934 77.7247 27.7199 78.3082 27.2064C78.9618 26.6462 79.522 25.9693 79.9188 25.1991L77.8648 23.9153C77.608 24.4288 77.2579 24.8956 76.8378 25.2924C76.441 25.6426 75.9975 25.8993 75.5073 26.0627C74.9938 26.2261 74.4803 26.2961 73.9435 26.2961C73.1965 26.3194 72.4963 26.1327 71.8661 25.7593C71.2359 25.3625 70.7224 24.8023 70.419 24.1487C70.1155 23.4952 69.9521 22.8183 69.9288 22.0947H80.1989C80.2222 21.978 80.2222 21.838 80.2222 21.7213V21.3711C80.2222 19.9707 79.9421 18.7103 79.4053 17.6833C78.8451 16.6329 78.0748 15.7926 77.0945 15.1858ZM70.9325 17.8233C71.2592 17.4032 71.6794 17.0764 72.1695 16.8663C72.683 16.6562 73.2432 16.5629 73.8034 16.5629C74.8304 16.5395 75.8107 16.983 76.4876 17.7533C76.9778 18.3368 77.3046 19.1071 77.4446 20.1107H69.9988C70.0455 19.854 70.0922 19.6206 70.1622 19.3638C70.3256 18.8036 70.5824 18.2901 70.9325 17.8233Z" fill="#00A443"/>
<path d="M89.0919 14.2988H88.3216C87.5514 14.2755 86.7811 14.5089 86.1276 14.929C85.4974 15.3492 84.9605 15.9794 84.5637 16.843V14.5789H81.9028V28.3735H84.5637V20.9977C84.5637 19.8306 84.8671 18.897 85.474 18.1734C86.0342 17.4965 86.8511 17.0997 87.7381 17.0997H89.0919V14.2988Z" fill="#00A443"/>
<path d="M100.062 17.053C99.9688 16.913 99.8988 16.7729 99.8054 16.6329C99.362 15.956 98.7317 15.3725 98.0315 14.9523C97.3079 14.5322 96.4443 14.3221 95.4407 14.3221C94.577 14.2988 93.7134 14.4855 92.9198 14.8356C92.1496 15.1624 91.4727 15.6759 90.9125 16.3061C90.329 16.9597 89.8855 17.7533 89.5821 18.5702C89.2553 19.5039 89.0919 20.4842 89.1152 21.4645C89.1152 22.865 89.3953 24.1254 89.9322 25.1991C90.4457 26.2261 91.2393 27.0897 92.1963 27.7199C93.1532 28.3268 94.2736 28.6535 95.4173 28.6302C96.421 28.6302 97.3079 28.4201 98.0315 28C98.7551 27.5799 99.362 27.0197 99.8054 26.3194C99.8988 26.1794 99.9688 26.0627 100.039 25.8993V28.3501H102.7V9.35049H100.039L100.062 17.053ZM98.9652 24.9657C98.5917 25.3858 98.1482 25.7126 97.6347 25.9226C97.1212 26.156 96.5377 26.2494 95.9542 26.2494C94.7404 26.2494 93.7134 25.8293 92.9432 24.989C92.1729 24.1487 91.7761 22.9817 91.7761 21.4878C91.7528 20.8109 91.8695 20.1341 92.0795 19.4805C92.2663 18.9203 92.5697 18.4302 92.9432 17.9867C93.3166 17.5665 93.7601 17.2631 94.2503 17.053C94.7871 16.843 95.3473 16.7263 95.9308 16.7496C97.1446 16.7496 98.1482 17.1697 98.9185 18.01C99.6887 18.8503 100.086 20.0174 100.086 21.5112C100.109 22.1881 99.9922 22.865 99.7821 23.4952C99.642 24.0087 99.3386 24.5222 98.9652 24.9657Z" fill="#00A443"/>
<path d="M112.41 14.2988H111.616C110.846 14.2755 110.076 14.5089 109.422 14.929C108.792 15.3492 108.255 15.9794 107.858 16.843V14.5789H105.197V28.3735H107.858V20.9977C107.858 19.8306 108.162 18.897 108.768 18.1734C109.329 17.4965 110.169 17.0997 111.033 17.0997H112.386L112.41 14.2988Z" fill="#00A443"/>
<path d="M122.983 15.1858C121.886 14.5789 120.626 14.2521 119.365 14.2755C118.408 14.2521 117.475 14.4388 116.588 14.789C115.747 15.1157 115 15.6292 114.37 16.2594C113.74 16.913 113.227 17.6832 112.9 18.5235C112.55 19.4572 112.386 20.4141 112.386 21.4178C112.386 22.8183 112.69 24.0787 113.297 25.1757C113.88 26.2494 114.744 27.113 115.794 27.7199C116.891 28.3268 118.128 28.6535 119.389 28.6302C120.346 28.6535 121.279 28.4668 122.166 28.1167C123.006 27.7899 123.753 27.2764 124.384 26.6462C125.014 25.9927 125.527 25.2224 125.854 24.3821C126.204 23.4485 126.368 22.4682 126.368 21.4645C126.368 20.0173 126.064 18.7803 125.457 17.7066C124.897 16.6562 124.033 15.7926 122.983 15.1858ZM123.333 23.4718C123.123 24.032 122.843 24.5455 122.423 24.989C122.049 25.4091 121.583 25.7126 121.069 25.9226C120.532 26.156 119.949 26.2494 119.365 26.2494C118.595 26.2728 117.871 26.0627 117.194 25.6659C116.541 25.2691 116.027 24.7089 115.677 24.032C115.304 23.3084 115.117 22.4682 115.117 21.4645C115.094 20.7876 115.21 20.1107 115.421 19.4572C115.607 18.897 115.911 18.3835 116.308 17.9633C116.681 17.5432 117.148 17.2164 117.661 17.0297C118.198 16.8196 118.782 16.7263 119.342 16.7263C120.112 16.7029 120.882 16.913 121.559 17.3098C122.213 17.7066 122.726 18.2668 123.076 18.9437C123.45 19.6672 123.637 20.5075 123.637 21.4878C123.683 22.1647 123.567 22.8416 123.333 23.4718Z" fill="#00A443"/>
<path d="M130.919 25.5959C130.686 25.3158 130.592 24.919 130.592 24.3821V9.35049H127.931V24.5689C127.908 25.2458 128.048 25.9226 128.352 26.5528C128.632 27.113 129.052 27.5799 129.612 27.8833C130.242 28.2101 130.966 28.3968 131.666 28.3734H133.16V26.0393H132.063C131.526 26.0393 131.153 25.8993 130.919 25.5959Z" fill="#00A443"/>
<path d="M145.46 17.2865C145.134 16.6329 144.667 16.0494 144.083 15.5826C143.5 15.1391 142.823 14.789 142.123 14.6022C141.376 14.3922 140.582 14.2988 139.788 14.2988C138.621 14.2755 137.454 14.5556 136.427 15.1157C135.424 15.6759 134.63 16.5629 134.21 17.6366L136.287 18.827C136.544 18.1734 136.988 17.6366 137.571 17.2631C138.155 16.8663 138.878 16.6796 139.742 16.6796C140.349 16.6562 140.956 16.773 141.516 17.0064C142.029 17.2164 142.496 17.5899 142.799 18.0801C143.126 18.5702 143.29 19.2238 143.29 19.994V21.5345C143.196 21.4412 143.103 21.3245 142.986 21.2544C142.146 20.5075 140.909 20.1341 139.298 20.1341C138.341 20.1107 137.384 20.2741 136.474 20.6242C135.68 20.9043 134.98 21.4178 134.467 22.0714C133.486 23.4485 133.486 25.3158 134.443 26.6929C134.957 27.3465 135.634 27.8366 136.404 28.14C137.268 28.4902 138.225 28.6535 139.158 28.6302C140.792 28.6302 142.053 28.2334 142.94 27.4865C143.103 27.3465 143.266 27.1597 143.43 26.973V28.3501H145.974V19.7606C146.021 18.897 145.834 18.0567 145.46 17.2865ZM142.426 26.0394C141.772 26.4361 140.956 26.6229 139.999 26.6229C138.995 26.6229 138.178 26.4361 137.501 26.0394C136.847 25.6426 136.521 25.1057 136.521 24.3821C136.497 23.6586 136.894 23.005 137.501 22.6782C138.155 22.3048 138.995 22.1181 139.999 22.1181C140.979 22.1181 141.796 22.3048 142.426 22.7016C143.056 23.0284 143.43 23.6819 143.406 24.3821C143.406 25.1057 143.08 25.6426 142.426 26.0394Z" fill="#00A443"/>
<path d="M22.0564 21.6046C22.0564 23.7986 22.92 25.8993 24.4605 27.4398C27.4248 30.4041 31.4628 30.4041 34.0304 29.0037C37.1814 27.2998 44.2537 22.1881 36.9013 0.971069C36.878 10.9844 22.0564 12.0114 22.0564 21.6046Z" fill="#FF9C1A"/>
<path d="M28.8253 9.7473C28.3351 7.10976 27.5415 4.42554 26.3744 0.971069C26.3744 10.9844 11.5295 12.0114 11.5295 21.6046C11.5295 23.7986 12.3932 25.8993 13.9337 27.4398C16.898 30.4041 20.9593 30.4041 23.5035 29.0037C17.5982 22.7249 19.6756 15.4425 28.8253 9.7473Z" fill="#0DA9FF"/>
<path d="M18.2985 9.7473C17.8083 7.10976 17.0147 4.42554 15.8477 0.971069C15.8477 10.9844 1.02612 12.0114 1.02612 21.6046C1.02612 26.5295 5.01744 28.7002 5.01744 28.7002C4.38723 31.3378 4.27053 34.0687 4.62064 36.7296L6.51127 36.4261C5.57763 33.1817 6.13781 29.6572 6.20784 29.3071C8.63531 30.2874 11.1561 29.984 12.9534 29.0037C7.07145 22.7249 9.14881 15.4425 18.2985 9.7473Z" fill="#00A443"/>
<path d="M48.2684 31.5245H47.1013V50.5474H48.2684H49.9022H60.0789V48.0033H49.9022V42.1447H58.9586V39.6472H49.9022V34.0453H60.0789V31.5245H49.9022H48.2684Z" fill="#00A443"/>
<path d="M71.586 44.1987C70.8858 43.5451 69.8354 43.0316 68.3649 42.6582L67.0112 42.3314C66.521 42.2147 66.0542 42.0513 65.564 41.8646C65.1905 41.7245 64.8404 41.5378 64.5603 41.2577C64.3036 41.0243 64.1635 40.6742 64.1869 40.3241C64.1869 39.8573 64.4203 39.4838 64.9105 39.1804C65.3773 38.8769 66.0308 38.7369 66.8011 38.7369C67.548 38.7135 68.2716 38.9003 68.9251 39.2504C69.5553 39.6005 69.9988 40.2074 70.2322 41.0476L72.4496 40.2307C72.2395 39.4371 71.8427 38.7369 71.2826 38.1534C70.7224 37.5932 70.0688 37.1497 69.3219 36.8696C68.505 36.5662 67.6414 36.4261 66.7777 36.4495C65.8441 36.4261 64.9105 36.5895 64.0468 36.9396C63.3233 37.2197 62.6931 37.7099 62.2029 38.3167C61.7594 38.9003 61.526 39.6005 61.5493 40.3474C61.526 41.3044 61.8761 42.2147 62.553 42.9149C63.2066 43.6152 64.3036 44.1287 65.7741 44.5021L67.1512 44.8522C68.1315 45.0623 68.8551 45.3191 69.3219 45.5992C69.7654 45.8326 70.0221 46.276 69.9988 46.7662C69.9988 47.2797 69.7187 47.6998 69.1819 48.0266C68.645 48.3534 67.8748 48.5168 66.9411 48.5168C66.4043 48.5168 65.8674 48.4234 65.3773 48.2367C64.8871 48.0733 64.4203 47.7699 64.0702 47.4198C63.6734 47.023 63.4166 46.5561 63.2532 46.0193L61.0825 46.9763C61.6194 48.5868 62.8798 49.8472 64.467 50.3607C65.2606 50.6408 66.1242 50.7809 66.9645 50.7809C68.1315 50.7809 69.1352 50.6175 69.9755 50.2674C70.7457 49.9639 71.4226 49.4738 71.9361 48.8202C72.4029 48.2134 72.6363 47.4664 72.613 46.7195C72.6363 45.7159 72.2862 44.8756 71.586 44.1987Z" fill="#00A443"/>
<path d="M84.937 37.3831C83.98 36.7762 82.8597 36.4494 81.716 36.4728C80.6889 36.4728 79.802 36.6829 79.0551 37.103C78.3315 37.5231 77.7246 38.0833 77.2812 38.7836C77.1878 38.9236 77.1178 39.0636 77.0244 39.2037V36.7529H74.3635V55.0523H77.0244V48.0733C77.1178 48.2133 77.1878 48.3534 77.2812 48.4934C77.7246 49.1703 78.3548 49.7538 79.0551 50.174C79.7786 50.5941 80.6656 50.8042 81.6926 50.8042C82.5562 50.8275 83.3965 50.6408 84.1901 50.2907C84.9604 49.9406 85.6372 49.4504 86.1974 48.8202C86.781 48.1667 87.2478 47.3731 87.5512 46.5561C87.878 45.6225 88.0414 44.6655 88.0414 43.6618C88.0414 42.2614 87.7613 41.001 87.2011 39.9273C86.6876 38.9003 85.9173 38.0133 84.937 37.3831ZM85.0304 45.6458C84.8437 46.206 84.5402 46.7195 84.1668 47.163C83.7933 47.5831 83.3498 47.9099 82.8597 48.12C82.3228 48.3534 81.7626 48.4467 81.1791 48.4467C79.9654 48.4467 78.9617 48.0266 78.1915 47.1863C77.4212 46.3461 77.0244 45.179 77.0244 43.6852C77.0011 43.0083 77.1178 42.3314 77.3278 41.6778C77.5146 41.1177 77.818 40.6042 78.1915 40.1607C78.5649 39.7405 79.0084 39.4371 79.4986 39.227C80.0121 39.017 80.5956 38.9236 81.1558 38.9236C82.3695 38.9236 83.3965 39.3437 84.1668 40.184C84.937 41.0243 85.3338 42.1913 85.3338 43.6618C85.3338 44.3154 85.2405 44.9923 85.0304 45.6458Z" fill="#00A443"/>
<path d="M99.3852 37.7565C98.8017 37.3131 98.1248 36.9863 97.4246 36.7762C96.6777 36.5661 95.8841 36.4728 95.0905 36.4728C93.9234 36.4494 92.7564 36.7295 91.7294 37.2897C90.7257 37.8499 89.9321 38.7369 89.512 39.8106L91.5893 41.0009C91.8461 40.3474 92.2895 39.8106 92.8731 39.4371C93.4566 39.0403 94.1802 38.8536 95.0438 38.8536C95.6506 38.8302 96.2575 38.9469 96.8177 39.1803C97.3312 39.3904 97.798 39.7639 98.1015 40.254C98.4282 40.7442 98.5916 41.3744 98.5916 42.168V43.7085C98.4983 43.6151 98.3816 43.4984 98.2882 43.4284C97.4479 42.6815 96.2108 42.308 94.6003 42.308C93.6433 42.2847 92.6863 42.4481 91.776 42.7982C90.9824 43.0783 90.2822 43.5918 89.7687 44.2454C88.7884 45.6225 88.7884 47.4898 89.7454 48.8669C90.2355 49.5204 90.9358 50.0339 91.706 50.314C92.5696 50.6641 93.5266 50.8275 94.4603 50.8042C96.0941 50.8042 97.3312 50.4074 98.2415 49.6605C98.4049 49.5204 98.5683 49.3337 98.7317 49.147V50.5241H101.252V41.9346C101.276 41.0943 101.112 40.2307 100.739 39.4604C100.436 38.8069 99.9687 38.2234 99.3852 37.7565ZM97.728 48.19C97.0744 48.5868 96.2575 48.7735 95.3005 48.7735C94.2969 48.7735 93.4799 48.5868 92.803 48.19C92.1262 47.7932 91.7994 47.2563 91.8227 46.5328C91.7994 45.8092 92.1962 45.1557 92.803 44.8289C93.4566 44.4554 94.2969 44.2687 95.3005 44.2687C96.2809 44.2687 97.0978 44.4554 97.728 44.8522C98.3582 45.179 98.7317 45.8325 98.7083 46.5328C98.685 47.2563 98.3815 47.8165 97.728 48.19Z" fill="#00A443"/>
<path d="M110.892 32.3881C110.706 32.2481 110.496 32.0847 110.262 31.8979C110.005 31.6879 109.749 31.5245 109.469 31.4078C108.652 31.081 107.718 31.1277 106.924 31.5712C106.458 31.8513 106.084 32.2481 105.827 32.7149C105.547 33.2284 105.407 33.8586 105.407 34.6288H107.601C107.601 34.162 107.671 33.8119 107.835 33.6252C107.951 33.4151 108.185 33.3217 108.418 33.3217C108.652 33.3217 108.862 33.3918 109.025 33.5318C109.212 33.6719 109.422 33.8352 109.632 34.0453C109.865 34.2554 110.145 34.4421 110.426 34.5588C110.799 34.6989 111.196 34.7922 111.593 34.7689C112.083 34.7689 112.55 34.6288 112.97 34.3954C113.437 34.1153 113.81 33.7185 114.067 33.2517C114.37 32.6682 114.51 31.9913 114.487 31.3378H112.293C112.293 31.7812 112.223 32.1314 112.059 32.3181C111.919 32.5048 111.709 32.6215 111.476 32.6215C111.266 32.5982 111.032 32.5282 110.892 32.3881Z" fill="#00A443"/>
<path d="M113.133 37.1263C112.339 36.6829 111.429 36.4494 110.495 36.4728C109.562 36.4728 108.652 36.7295 107.835 37.2197C107.228 37.5932 106.714 38.1533 106.387 38.7835V36.7295H103.727V50.5241H106.387V42.3547C106.387 41.2577 106.714 40.3941 107.344 39.7639C107.975 39.1337 108.815 38.8302 109.842 38.8302C110.752 38.8302 111.476 39.1337 112.036 39.7639C112.596 40.3707 112.876 41.211 112.876 42.2614V50.5241H115.56V41.8179C115.584 40.8376 115.35 39.8572 114.907 38.9703C114.533 38.2 113.903 37.5698 113.133 37.1263Z" fill="#00A443"/>
<path d="M127.604 37.7565C127.021 37.3131 126.344 36.9863 125.644 36.7762C124.897 36.5661 124.103 36.4728 123.31 36.4728C122.143 36.4494 120.976 36.7295 119.949 37.2897C118.945 37.8499 118.151 38.7369 117.731 39.8106L119.809 41.0009C120.065 40.3474 120.509 39.8106 121.092 39.4371C121.676 39.0403 122.399 38.8536 123.263 38.8536C123.87 38.8302 124.477 38.9469 125.037 39.1803C125.55 39.3904 126.017 39.7639 126.321 40.254C126.647 40.7442 126.811 41.3744 126.811 42.168V43.7085C126.718 43.6151 126.624 43.4984 126.507 43.4284C125.667 42.6815 124.43 42.308 122.82 42.308C121.863 42.2847 120.906 42.4481 119.995 42.7982C119.202 43.0783 118.501 43.5918 117.988 44.2454C117.008 45.6225 117.008 47.4898 117.965 48.8669C118.455 49.5204 119.155 50.0339 119.925 50.314C120.789 50.6641 121.746 50.8275 122.679 50.8042C124.313 50.8042 125.574 50.4074 126.461 49.6605C126.624 49.5204 126.788 49.3337 126.951 49.147V50.5241H129.472V41.9346C129.495 41.0943 129.332 40.2307 128.958 39.4604C128.655 38.8069 128.165 38.2234 127.604 37.7565ZM125.924 48.19C125.27 48.5868 124.453 48.7735 123.496 48.7735C122.493 48.7735 121.676 48.5868 120.999 48.19C120.345 47.7932 120.019 47.2563 120.019 46.5328C119.995 45.8092 120.392 45.1557 120.999 44.8289C121.652 44.4554 122.493 44.2687 123.496 44.2687C124.477 44.2687 125.294 44.4554 125.924 44.8522C126.554 45.179 126.928 45.8325 126.904 46.5328C126.904 47.2563 126.577 47.8165 125.924 48.19Z" fill="#00A443"/>
</g>
<defs>
<clipPath id="clip0_6_19">
<rect width="145.648" height="55" fill="white" transform="translate(0.676025 0.5)"/>
</clipPath>
</defs>
</svg>
