<svg width="56" height="56" viewBox="0 0 56 56" fill="none" xmlns="http://www.w3.org/2000/svg">
<g clip-path="url(#clip0_7_42)">
<path d="M0.34375 55.8467H55.14V0.846812H0.34375V55.8467Z" fill="#18A8E8"/>
<path d="M36.9019 16.1602C37.11 16.1602 37.206 16.375 37.2844 16.6979C37.3197 16.8554 37.3693 17.0738 37.4233 17.3269C37.6017 18.1621 37.8755 19.4779 38.2232 20.3566C38.3823 20.7648 38.6209 20.9896 38.8962 20.9896C39.3131 20.9896 39.7416 20.493 39.9825 19.725C40.3035 18.7013 42.2401 10.2818 43.0562 6.75857C43.0875 6.61305 43.1067 6.53065 43.1092 6.52612C43.1243 6.46494 43.1648 6.42251 43.2113 6.42251C43.2558 6.42251 43.3037 6.4599 43.3037 6.53971L43.3072 6.5529C43.3695 10.1196 43.5438 16.3851 43.81 17.0263C43.9555 17.3831 44.1804 17.571 44.4583 17.571C44.7802 17.571 45.1667 17.3087 45.442 16.907C45.5811 16.704 45.7553 16.4392 45.9474 16.1602C46.4071 15.471 46.9291 14.6914 47.0832 14.5231C47.3131 14.2786 47.5819 14.2786 47.9574 14.5379C48.0129 14.5732 48.0786 14.6206 48.1519 14.6747C48.5562 14.9692 49.2266 15.371 49.981 15.5786C50.4822 15.7177 51.1239 15.7454 51.5761 15.7454C51.8666 15.7454 52.1789 15.7347 52.2684 15.7283L52.4746 14.606C52.3659 14.6131 52.0739 14.6206 51.8 14.6206C51.316 14.6206 50.659 14.5928 50.2664 14.4574C49.8026 14.2999 49.3949 13.9845 48.9628 13.6486C48.7455 13.4822 48.5218 13.3094 48.2792 13.1468C47.9852 12.9507 47.7375 12.8588 47.5052 12.8588C47.1878 12.8588 46.8821 13.0316 46.5083 13.4186C46.0055 13.9386 45.2011 15.1219 44.8761 15.6075C44.856 15.6377 44.8297 15.6716 44.7902 15.6716C44.7094 15.6716 44.7094 15.568 44.7094 15.5332C44.6943 14.1811 44.4795 6.78379 44.3345 4.57629C44.2688 3.59904 43.9667 2.9942 43.5438 2.9942C43.2038 2.9942 42.6975 3.44499 42.3801 4.71819C41.5742 7.96166 39.8502 15.1699 39.1059 18.8322C39.0882 18.9322 38.9736 18.9322 38.9508 18.8322C38.87 18.4587 38.7966 18.0323 38.7295 17.675C38.5047 16.5458 38.3152 15.5706 37.9378 15.0344C37.5068 14.4266 36.8701 14.3882 36.097 14.9C35.9278 15.0143 35.761 15.1542 35.5891 15.3053C35.0931 15.7347 34.5322 16.2184 33.6009 16.2184H24.506L24.2852 17.4295H33.8551C34.8328 17.4295 35.7407 16.8646 36.2854 16.4745C36.5568 16.2754 36.7479 16.1602 36.9019 16.1602Z" fill="white"/>
<path d="M10.9407 11.6021C9.20758 11.5061 9.7457 7.88276 11.5874 7.9843C13.4721 8.09102 12.8582 11.7087 10.9407 11.6021ZM13.2786 7.24662L13.1285 8.03941C12.9249 7.63014 12.3514 7.14106 11.4232 7.14106C9.78713 7.14106 8.817 8.49317 8.65531 9.93478C8.46836 11.5819 9.53095 12.5465 10.6123 12.5465C11.6279 12.5465 12.172 12.0959 12.5045 11.5799L12.4843 11.6583C12.3883 12.1402 12.79 12.4363 13.1664 12.4363H13.4949L14.4028 7.24662H13.2786Z" fill="white"/>
<path d="M28.6343 11.6026C26.9013 11.5066 27.4394 7.88377 29.2801 7.98479C31.1657 8.09099 30.5518 11.7087 28.6343 11.6026ZM30.9727 7.24814L30.8237 8.03834C30.6201 7.63115 30.0456 7.14104 29.1194 7.14104C27.4823 7.14104 26.5122 8.49314 26.3495 9.9367C26.1635 11.5824 27.2236 12.547 28.3059 12.547C29.323 12.547 29.8661 12.0958 30.1982 11.5804L30.1794 11.6598C30.0845 12.1407 30.4837 12.4363 30.8616 12.4363H31.1901L32.0969 7.24814H30.9727Z" fill="white"/>
<path d="M21.7288 7.24473H21.4348L20.501 12.4414H21.6798L22.4715 8.04205C22.5539 7.58777 22.1987 7.24473 21.7288 7.24473Z" fill="white"/>
<path d="M22.8272 5.40989C22.6186 5.13902 22.2017 5.10578 21.8936 5.34016C21.5878 5.57416 21.5069 5.98692 21.7157 6.25972C21.9228 6.5342 22.3407 6.56447 22.6454 6.33203C22.951 6.09609 23.0344 5.68476 22.8272 5.40989Z" fill="white"/>
<path d="M7.862 10.25C7.862 8.10055 5.22192 8.39004 5.22192 7.00611C5.22192 6.73835 5.45689 6.04361 6.4159 6.04361C7.30771 6.04361 7.70183 6.39014 7.8999 6.52053C7.94537 6.43166 8.3309 5.74649 8.39507 5.57058C8.17528 5.41548 7.64624 5.10582 6.50533 5.10582C4.83691 5.10582 3.98047 6.30128 3.98047 7.21424C3.98047 9.37388 6.64327 9.08426 6.64327 10.4148C6.64327 11.3025 5.82826 11.5631 5.11987 11.5631C4.5767 11.5631 3.99309 11.3733 3.52319 10.967C3.4575 11.0984 3.16192 11.64 3.00781 11.926C3.53431 12.2848 4.24927 12.5515 5.13856 12.5515C6.63569 12.5515 7.862 11.5869 7.862 10.25Z" fill="white"/>
<path d="M34.7546 7.90292C35.4554 7.90292 35.6576 8.11505 35.9102 8.23483C35.9608 8.14286 36.2452 7.60218 36.3296 7.44605C36.2199 7.35512 35.7258 7.08477 34.8643 7.08477H34.8491C33.4218 7.08477 32.7335 8.02166 32.7335 8.74215C32.7335 10.2261 34.7911 9.99569 34.7911 10.9052C34.7911 11.357 34.3312 11.6591 33.7137 11.6591C33.1832 11.6591 32.7547 11.4079 32.4455 11.2094C32.3934 11.309 32.1145 11.8198 32.0186 11.9754C32.247 12.1355 32.8079 12.5013 33.7794 12.5013C35.0183 12.5013 35.9733 11.6894 35.9733 10.785C35.9733 9.24946 33.8906 9.41167 33.8906 8.55058C33.8906 8.21155 34.2872 7.90292 34.7546 7.90292Z" fill="white"/>
<path d="M25.0278 8.07986H26.3223L26.4689 7.25628C26.4689 7.25628 25.4052 7.25628 25.1804 7.25977L25.3259 6.46039C25.4092 6.00365 25.054 5.66152 24.5832 5.66152H24.2886L24.0031 7.25628H23.2644L23.1113 8.07986C23.1113 8.07986 23.6545 8.07831 23.8504 8.07831L23.3513 10.8811C23.1103 12.0917 23.853 12.5601 24.7232 12.5601C25.0101 12.5601 25.4143 12.5181 25.6099 12.4495C25.6721 12.1503 25.7867 11.5167 25.7867 11.5167C25.3724 11.6431 24.3568 11.833 24.525 10.8952L25.0278 8.07986Z" fill="white"/>
<path d="M18.1302 12.4434L19.3111 12.4413L19.8946 9.18488C20.1195 7.94544 19.4792 7.1379 18.4865 7.1379C17.5071 7.1379 17.0009 7.51949 16.5966 8.07065C16.6962 7.50125 16.2213 7.24966 15.8953 7.24966H15.6037L14.665 12.4434L15.8423 12.4413L16.3313 9.75027C16.5841 8.3829 17.4228 8.07065 18.0075 8.07065C18.2904 8.07065 18.8891 8.26429 18.7113 9.23947C18.4597 10.6335 18.1302 12.4434 18.1302 12.4434Z" fill="white"/>
</g>
<defs>
<clipPath id="clip0_7_42">
<rect width="54.793" height="55" fill="white" transform="translate(0.34375 0.84668)"/>
</clipPath>
</defs>
</svg>
